# xmcd CD database file
# Copyright (C) 1993-1996 Ti Kan
#
# Track frame offsets:
#	182
#	20550
#	36632
#	58877
#	76032
#	95970
#	112307
#	135007
#	154440
#	171797
#	191355
#
# Disc length: 2847 seconds
#
# Revision: 1
# Processed by: cddbd v1.4b41PL1 Copyright (c) Steve Scherf et al.
# Submitted via: CDValet v3.31 - Copyright (c) 1997 Greg Leichner
#
DISCID=970b1d0b
DTITLE=Professor X - Years Of The 9, On The Blackhand Side
DYEAR=1900
DGENRE=
TTITLE0=The Sleeper Has Awakened
TTITLE1=What's Up G?
TTITLE2=Call A Spade A Spade
TTITLE3=The Definition Of A Sissy
TTITLE4=Years Of The 9, On The Blackhand Side
TTITLE5=AHH!
TTITLE6=Vanglorious Crib
TTITLE7=Black Boot Stomp
TTITLE8=Gorilas In The Mist
TTITLE9=Reality
TTITLE10=Pull Up To The Bumper
EXTD=
EXTT0=
EXTT1=
EXTT2=
EXTT3=
EXTT4=
EXTT5=
EXTT6=
EXTT7=
EXTT8=
EXTT9=
EXTT10=
PLAYORDER=
